<?xml version="1.0" encoding="UTF-8" standalone="no"?>
<!DOCTYPE svg PUBLIC "-//W3C//DTD SVG 1.1//EN" "http://www.w3.org/Graphics/SVG/1.1/DTD/svg11.dtd">
<svg version="1.1" xmlns="http://www.w3.org/2000/svg" xmlns:xlink="http://www.w3.org/1999/xlink" preserveAspectRatio="xMidYMid meet" viewBox="0 0 640 800" width="640" height="800"><defs><path d="M645.53 110.6L565.54 88.02L645.53 62.57L645.53 110.6Z" id="c10AeYM0V"></path><path d="M464.06 203.27L646.65 204.27L530.69 167.8L464.06 203.27Z" id="amGlwwRfF"></path><path d="M584.91 313.77L529.18 262.4L642.93 282.24L584.91 313.77Z" id="e2ZYoBctE"></path><path d="M586.05 314.27L550.05 427.27L490.05 361.27L531.5 264.27L586.05 314.27Z" id="fUScIwqA7"></path><path d="M584.21 313.08L640 280.27L640 411.51L549.05 428.94L584.21 313.08Z" id="d2Ov1i8Ip"></path><path d="M641.05 108.77L641.05 204.77L527.24 169.77L566.23 87.5L641.05 108.77Z" id="a6hDK58QGs"></path><path d="M450.24 247.2L396.56 305.94L499.15 365.71L450.24 247.2Z" id="j3Xi12T5i"></path><path d="M640.09 203.27L640.09 282.27L532.13 264.27L494.12 361.27L449.09 249.27L464.1 203.27L640.09 203.27Z" id="euZM6Obiv"></path><path d="M399.81 302.14L301.23 336.47L499.43 363.52L399.81 302.14Z" id="a62vaZmPzQ"></path><path d="" id="d1STY7iDVm"></path><path d="M549.05 427.27L640 411.27L640 467.27L570.81 480.27L549.05 427.27Z" id="b1ML3fbVZZ"></path><path d="" id="fEZnmK1It"></path><path d="M640.19 806.33L640.19 758.3L500.34 787.27L640.19 806.33Z" id="b9WeWhMA0"></path><path d="M500.92 787.82L640 761.87L640 670.55L432.31 730.74L500.92 787.82Z" id="a2HbebSz0P"></path><path d="M433.49 731.93L641.66 670.55L353.59 686.84L433.49 731.93Z" id="aX4dVOOJu"></path><path d="M354.23 687.19L639.86 671.03L640.19 560.03L311.68 593.06L354.23 687.19Z" id="e4hKPSVFmi"></path><path d="M663.66 558.15L311.68 595.14L589.73 469.87L663.66 558.15Z" id="eMM6henz"></path><path d="M571.4 479.98L311.65 595.14L227.92 517.86L571.4 479.98Z" id="d4PgS3J7k"></path><path d="M573.09 483.27L551.94 427.01L238.38 414.27L573.09 483.27Z" id="dhGGSI1Ls"></path><path d="M640 466.27L640 559.55L571.55 480.27L640 466.27Z" id="h5AtjVLIP"></path><path d="M301.76 336.29L493.94 361.34L552.25 427.47L238.38 414.44L301.76 336.29Z" id="a15VQR93UV"></path><path d="M549.05 427.27L640 411.27L640 467.27L570.81 480.27L549.05 427.27Z" id="cGPiQA8N1"></path><path d="M238.49 414.27L229.47 518.13L572.95 480.45L238.49 414.27Z" id="d30fup2GUB"></path></defs><g><g><g><use xlink:href="#c10AeYM0V" opacity="1" fill="#ffffff" fill-opacity="1"></use></g><g><use xlink:href="#amGlwwRfF" opacity="1" fill="#ffffff" fill-opacity="1"></use></g><g><use xlink:href="#e2ZYoBctE" opacity="1" fill="#ffffff" fill-opacity="1"></use></g><g><use xlink:href="#fUScIwqA7" opacity="1" fill="#f1f2f6" fill-opacity="1"></use></g><g><use xlink:href="#d2Ov1i8Ip" opacity="1" fill="#dfe4ea" fill-opacity="1"></use></g><g><use xlink:href="#a6hDK58QGs" opacity="1" fill="#f1f2f6" fill-opacity="1"></use></g><g><use xlink:href="#j3Xi12T5i" opacity="1" fill="#dfe4ea" fill-opacity="1"></use></g><g><use xlink:href="#euZM6Obiv" opacity="1" fill="#f1f2f6" fill-opacity="1"></use></g><g><use xlink:href="#a62vaZmPzQ" opacity="1" fill="#ffffff" fill-opacity="1"></use></g><g><g><use xlink:href="#d1STY7iDVm" opacity="1" fill-opacity="0" stroke="#000000" stroke-width="1" stroke-opacity="1"></use></g></g><g><use xlink:href="#b1ML3fbVZZ" opacity="1" fill="#ced6e0" fill-opacity="1"></use></g><g><g><use xlink:href="#fEZnmK1It" opacity="1" fill-opacity="0" stroke="#000000" stroke-width="1" stroke-opacity="1"></use></g></g><g><use xlink:href="#b9WeWhMA0" opacity="1" fill="#747d8c" fill-opacity="1"></use></g><g><use xlink:href="#a2HbebSz0P" opacity="1" fill="#dfe4ea" fill-opacity="1"></use></g><g><use xlink:href="#aX4dVOOJu" opacity="1" fill="#a4b0be" fill-opacity="1"></use></g><g><use xlink:href="#e4hKPSVFmi" opacity="1" fill="#dfe4ea" fill-opacity="1"></use></g><g><use xlink:href="#eMM6henz" opacity="1" fill="#a4b0be" fill-opacity="1"></use></g><g><use xlink:href="#d4PgS3J7k" opacity="1" fill="#ced6e0" fill-opacity="1"></use></g><g><use xlink:href="#dhGGSI1Ls" opacity="1" fill="#dfe4ea" fill-opacity="1"></use></g><g><use xlink:href="#h5AtjVLIP" opacity="1" fill="#747d8c" fill-opacity="1"></use></g><g><use xlink:href="#a15VQR93UV" opacity="1" fill="#f1f2f6" fill-opacity="1"></use></g><g><use xlink:href="#cGPiQA8N1" opacity="1" fill="#ced6e0" fill-opacity="1"></use></g><g><use xlink:href="#d30fup2GUB" opacity="1" fill="#ffffff" fill-opacity="1"></use></g></g></g></svg>