<?xml version="1.0" encoding="UTF-8" standalone="no"?>
<!DOCTYPE svg PUBLIC "-//W3C//DTD SVG 1.1//EN" "http://www.w3.org/Graphics/SVG/1.1/DTD/svg11.dtd">
<svg version="1.1" xmlns="http://www.w3.org/2000/svg" xmlns:xlink="http://www.w3.org/1999/xlink" preserveAspectRatio="xMidYMid meet" viewBox="0 0 400 250" width="400" height="250"><defs><path d="M149.29 129.6C149.29 157.75 126.44 180.61 98.28 180.61C70.13 180.61 47.27 157.75 47.27 129.6C47.27 101.44 70.13 78.59 98.28 78.59C126.44 78.59 149.29 101.44 149.29 129.6Z" id="c16GNOv0Uk"></path><path d="M227.02 56.81C235.42 88.15 216.8 120.4 185.46 128.8C154.13 137.19 121.87 118.57 113.48 87.24C105.08 55.9 123.7 23.65 155.04 15.25C186.37 6.86 218.63 25.48 227.02 56.81Z" id="cuNhlS0C"></path><path d="M308.9 143.15C308.9 163.82 292.38 180.61 272.03 180.61C251.68 180.61 235.16 163.82 235.16 143.15C235.16 122.48 251.68 105.7 272.03 105.7C292.38 105.7 308.9 122.48 308.9 143.15Z" id="a3sIPLQqo"></path><path d="M278.59 106.87C278.59 126.94 262.29 143.23 242.22 143.23C222.15 143.23 205.86 126.94 205.86 106.87C205.86 86.8 222.15 70.51 242.22 70.51C262.29 70.51 278.59 86.8 278.59 106.87Z" id="a2lcPtVyYj"></path><path d="M98.28 109.9L269.49 109.9L269.49 180.61L98.28 180.61L98.28 109.9Z" id="j8plUy4ZtS"></path></defs><g><g><g><use xlink:href="#c16GNOv0Uk" opacity="1" fill="#dfe4ea" fill-opacity="1"></use></g><g><use xlink:href="#cuNhlS0C" opacity="1" fill="#dfe4ea" fill-opacity="1"></use></g><g><use xlink:href="#a3sIPLQqo" opacity="1" fill="#dfe4ea" fill-opacity="1"></use></g><g><use xlink:href="#a2lcPtVyYj" opacity="1" fill="#dfe4ea" fill-opacity="1"></use></g><g><use xlink:href="#j8plUy4ZtS" opacity="1" fill="#dfe4ea" fill-opacity="1"></use></g></g></g></svg>